<svg viewBox="0 0 420 195" xmlns="http://www.w3.org/2000/svg" font-family="Consolas, 'Courier New', monospace">
  <rect x="1" y="1" width="418" height="193" rx="16" fill="#0e1626" stroke="#26334d"/>
  <text x="24" y="28" font-size="14" font-weight="bold" fill="#e7edf7">Most Used Languages &amp; Tools</text>
  
    <g>
      <text x="24" y="46" font-size="12.5" fill="#e7edf7">Python</text>
      <text x="396" y="46" font-size="12.5" fill="#8a97ab" text-anchor="end">42%</text>
      <rect x="24" y="52" width="372" height="6" rx="3" fill="#26334d"/>
      <rect x="24" y="52" width="0" height="6" rx="3" fill="#2dd4bf">
        <animate attributeName="width" from="0" to="142.79999999999998" begin="0.30s" dur="0.8s" fill="freeze" calcMode="spline" keySplines="0.2 0 0.2 1"/>
      </rect>
    </g>
    <g>
      <text x="24" y="74" font-size="12.5" fill="#e7edf7">DAX / Power Query</text>
      <text x="396" y="74" font-size="12.5" fill="#8a97ab" text-anchor="end">22%</text>
      <rect x="24" y="80" width="372" height="6" rx="3" fill="#26334d"/>
      <rect x="24" y="80" width="0" height="6" rx="3" fill="#22d3ee">
        <animate attributeName="width" from="0" to="74.8" begin="0.45s" dur="0.8s" fill="freeze" calcMode="spline" keySplines="0.2 0 0.2 1"/>
      </rect>
    </g>
    <g>
      <text x="24" y="102" font-size="12.5" fill="#e7edf7">SQL</text>
      <text x="396" y="102" font-size="12.5" fill="#8a97ab" text-anchor="end">18%</text>
      <rect x="24" y="108" width="372" height="6" rx="3" fill="#26334d"/>
      <rect x="24" y="108" width="0" height="6" rx="3" fill="#8b5cf6">
        <animate attributeName="width" from="0" to="61.199999999999996" begin="0.60s" dur="0.8s" fill="freeze" calcMode="spline" keySplines="0.2 0 0.2 1"/>
      </rect>
    </g>
    <g>
      <text x="24" y="130" font-size="12.5" fill="#e7edf7">HTML/CSS</text>
      <text x="396" y="130" font-size="12.5" fill="#8a97ab" text-anchor="end">10%</text>
      <rect x="24" y="136" width="372" height="6" rx="3" fill="#26334d"/>
      <rect x="24" y="136" width="0" height="6" rx="3" fill="#fbbf24">
        <animate attributeName="width" from="0" to="34.0" begin="0.75s" dur="0.8s" fill="freeze" calcMode="spline" keySplines="0.2 0 0.2 1"/>
      </rect>
    </g>
    <g>
      <text x="24" y="158" font-size="12.5" fill="#e7edf7">Jupyter Notebook</text>
      <text x="396" y="158" font-size="12.5" fill="#8a97ab" text-anchor="end">8%</text>
      <rect x="24" y="164" width="372" height="6" rx="3" fill="#26334d"/>
      <rect x="24" y="164" width="0" height="6" rx="3" fill="#f472b6">
        <animate attributeName="width" from="0" to="27.2" begin="0.90s" dur="0.8s" fill="freeze" calcMode="spline" keySplines="0.2 0 0.2 1"/>
      </rect>
    </g>
</svg>